<?xml version="1.0" encoding="utf-8"?>
<!DOCTYPE svg PUBLIC "-//W3C//DTD SVG 1.0//EN" "http://www.w3.org/TR/2001/REC-SVG-20010904/DTD/svg10.dtd">
<svg version="1.0" xmlns="http://www.w3.org/2000/svg" width="885px" height="198px" viewBox="0 0 885 198" preserveAspectRatio="xMidYMid meet">
 <g fill="#00dd57">
  <path d="M329.85 186.90 c-0.85 -0.70 -0.85 -1 0.65 -15.15 0.30 -2.75 0.75 -7.15 1 -9.75 0.30 -2.60 0.75 -6.75 1 -9.25 0.30 -2.45 0.65 -6.50 0.85 -9 l0.30 -4.50 -3.55 3.35 c-9.15 8.60 -20.65 12.05 -32.20 9.65 -6.90 -1.45 -10.95 -3.45 -15.50 -7.65 -8.90 -8.25 -13.05 -21.75 -11.45 -37.30 1.60 -15.55 6.75 -27.50 15.55 -36.20 6.10 -6.05 12.75 -9.70 20.50 -11.35 4.45 -0.95 13.30 -0.95 17.20 0 6.35 1.50 11.75 5.20 15.10 10.25 1.20 1.80 1.45 1.95 1.75 1.20 0.20 -0.55 0.40 -2 0.40 -3.25 0.05 -1.25 0.20 -3.35 0.35 -4.65 l0.35 -2.30 13.40 0 c11.90 0 13.45 0.10 13.45 0.80 0 0.95 -9.10 88 -12.05 114.80 -0.55 5.30 -1.25 9.90 -1.55 10.25 -0.75 0.90 -24.35 0.95 -25.55 0.05z m-5.15 -59.30 c8.50 -3.85 12.65 -12.30 13 -26.35 0.15 -8.10 -0.85 -11.30 -4.80 -15.10 -3.25 -3.15 -6.65 -4.30 -11.90 -4 -11.60 0.65 -19.35 9.35 -21.10 23.65 -0.70 5.85 -0.05 10 2.25 14.60 1.75 3.50 3.80 5.40 7.90 7.35 2.45 1.15 3.20 1.30 7.45 1.10 3.55 -0.10 5.40 -0.45 7.20 -1.25z"/>
  <path d="M138.75 152.70 c-8.35 -1.75 -11.70 -4.15 -14.60 -10.50 -2.15 -4.80 -2.60 -13.80 -1.15 -25.70 0.25 -2.05 0.70 -6.10 1 -9 0.30 -2.90 0.95 -9.40 1.50 -14.50 0.55 -5.10 1.20 -11.60 1.50 -14.50 0.70 -6.40 1.35 -12.75 2 -18.75 0.25 -2.45 0.70 -6.85 1 -9.75 0.30 -2.90 0.75 -7.05 1 -9.25 0.25 -2.20 0.60 -5.45 0.75 -7.25 0.95 -9.80 1.25 -11.70 1.85 -12.05 0.35 -0.25 6.35 -0.45 13.30 -0.45 10.35 0 12.70 0.15 12.90 0.70 0.15 0.40 -2 22.40 -4.80 48.90 -2.80 26.45 -5.15 49.80 -5.15 51.80 -0.10 3.60 -0.05 3.70 1.60 5.20 l1.70 1.55 4.95 -0.30 c4.55 -0.30 4.90 -0.25 4.90 0.65 0 0.50 -0.45 5.15 -1 10.35 -0.80 7.35 -1.20 9.55 -1.85 10 -0.95 0.70 -5 1.95 -8.70 2.65 -2.50 0.50 -10.70 0.60 -12.70 0.20z"/>
  <path d="M189.75 152.20 c-7.40 -1.60 -13.30 -5.80 -16 -11.40 -3.25 -6.75 -2.80 -17 1.10 -24.45 2.20 -4.20 5.75 -7.50 11 -10.25 6.70 -3.45 9.95 -4.30 25.15 -6.55 13.30 -1.95 13.35 -1.95 16.25 -3.10 3.35 -1.30 4.95 -3.60 4.95 -7.15 0 -5.50 -3 -7.65 -11.50 -8.15 -6.85 -0.45 -12 1 -19.25 5.25 -5.85 3.45 -8.45 4.30 -13.05 4.30 -3.40 -0.05 -4.05 -0.20 -5.60 -1.40 -1 -0.75 -2.20 -2.05 -2.65 -2.95 -1 -1.95 -1.65 -5.80 -1.15 -6.85 0.25 -0.40 0.65 -1.75 1 -2.95 1.20 -4.50 9.25 -10.95 17.30 -13.80 2.55 -0.95 7.60 -2.20 11.30 -2.80 5.80 -0.95 7.85 -1.05 16.15 -0.80 8.05 0.20 10.25 0.45 14.50 1.55 6.40 1.65 9.60 3.25 12.55 6.20 4.55 4.60 6.35 8.75 7.15 16.75 0.55 5.70 0.30 9.50 -1.95 29.85 -1.40 12.35 -1.80 27.95 -0.90 33.15 0.40 2.10 0.60 3.95 0.50 4.10 -0.15 0.15 -6.30 0.25 -13.65 0.25 -10.10 0 -13.50 -0.15 -13.75 -0.60 -0.25 -0.35 -0.50 -3.30 -0.60 -6.50 -0.15 -3.25 -0.35 -5.90 -0.55 -5.90 -0.15 0 -1.65 1.55 -3.30 3.45 -4.05 4.60 -8.65 7.65 -14.65 9.60 -4.15 1.35 -5.75 1.60 -10.85 1.75 -4.10 0.10 -7.10 -0.05 -9.50 -0.60z m27.30 -19.75 c6.75 -2.45 11.35 -9 12.60 -18.05 0.35 -2.70 0.45 -4.90 0.20 -4.90 -0.20 0 -1.05 0.35 -1.85 0.75 -0.75 0.40 -5.40 1.55 -10.35 2.50 -11.40 2.30 -14.50 3.90 -16.40 8.40 -1.05 2.55 -0.95 5.25 0.40 7.85 2.35 4.70 8.25 6.05 15.40 3.45z"/>
  <path d="M14.75 149.65 c0.15 -0.80 0.70 -5.80 1.25 -11.15 1.05 -10.25 5.10 -49.20 6 -57.75 0.30 -2.75 0.75 -7 1.05 -9.50 0.25 -2.45 1.25 -12.05 2.20 -21.25 1 -9.20 1.90 -17.80 2.05 -19.15 l0.35 -2.35 45.65 0 45.70 0 0 1.40 c0 3.30 -2.20 22.90 -2.65 23.50 -0.35 0.45 -7.20 0.60 -31.15 0.60 -16.85 0 -30.75 0.20 -30.90 0.40 -0.15 0.25 -0.50 2.70 -0.75 5.50 -0.30 2.80 -0.80 7.35 -1.05 10.15 -0.40 3.80 -0.40 5.20 0.05 5.75 0.45 0.60 4.25 0.70 22.55 0.70 13.95 0 22.75 0.20 24.10 0.55 1.15 0.30 3.15 1.40 4.40 2.50 2 1.70 2.40 2.40 2.90 4.75 1.40 6.70 -1.70 13.05 -7.65 15.70 -2.30 1 -3.05 1.05 -25.55 1 -18.40 0 -23.25 0.10 -23.70 0.65 -0.30 0.35 -0.75 2.85 -1.05 5.60 -0.30 2.75 -0.75 7.15 -1 9.75 -0.30 2.60 -1 9.15 -1.55 14.50 -0.55 5.35 -1.25 11.80 -1.50 14.25 -0.25 2.50 -0.50 4.65 -0.50 4.90 0 0.20 -6.65 0.35 -14.75 0.35 l-14.70 0 0.20 -1.35z"/>
  <path d="M383 150.10 c-3.95 -1.50 -5.25 -2.45 -6.65 -5 -2.15 -3.90 -1.55 -9.70 1.50 -14.35 1.25 -1.95 21.70 -23.15 38.10 -39.50 3.60 -3.55 6.55 -6.65 6.55 -6.85 0 -0.25 -8.70 -0.40 -19.35 -0.40 -11.15 0 -19.70 -0.20 -20.15 -0.50 -0.80 -0.50 -0.80 -1.55 0 -8 0.25 -2.05 0.75 -6.15 1.05 -9.15 l0.65 -5.35 39.15 0 39.20 0 -0.25 1.65 c-0.15 0.85 -0.50 4.30 -0.80 7.60 -0.30 3.30 -0.65 6.70 -0.80 7.50 -0.15 1.15 -1.75 3.05 -6.60 7.75 -3.50 3.40 -14.55 14.30 -24.60 24.25 l-18.25 18 22.60 0.25 c12.40 0.15 22.65 0.35 22.80 0.50 0.15 0.15 -0.05 3.05 -0.45 6.50 -0.35 3.45 -0.80 8.15 -1 10.50 -0.20 2.35 -0.55 4.55 -0.85 4.90 -0.35 0.45 -7.95 0.60 -35.05 0.55 -31 0 -34.80 -0.10 -36.80 -0.85z"/>
  <path d="M517.90 150.75 c-0.15 -0.15 -0.10 -1.35 0.10 -2.65 0.25 -1.30 0.65 -4.80 0.95 -7.85 0.30 -3 3.05 -29.05 6.05 -57.85 3.05 -28.80 5.50 -52.75 5.50 -53.20 0 -0.75 2.60 -0.80 31.90 -0.55 34.40 0.25 37.05 0.45 47.10 3.15 9 2.45 17 8.70 19.65 15.30 2.65 6.75 2.15 19 -1.10 25.85 -2.80 5.95 -8.15 11.40 -13.95 14.20 -1.15 0.60 -2.05 1.25 -1.95 1.50 0.05 0.25 1.35 0.95 2.85 1.50 3.45 1.25 7.75 4.15 10.05 6.70 4.45 4.90 6.30 13.25 4.75 21.60 -2.15 11.95 -7.35 19.15 -17.95 24.90 -7.80 4.30 -14.55 6.15 -25.85 7.15 -5.80 0.50 -67.60 0.75 -68.10 0.25z m70.95 -25.05 c3.15 -0.95 6.80 -3.20 7.90 -4.85 1.30 -2 2.75 -6.45 2.75 -8.35 0 -4.95 -2.50 -8.40 -7.05 -9.70 -4.25 -1.20 -12.65 -1.80 -26.25 -1.80 -9.25 0 -12.70 0.15 -13.30 0.65 -1.10 0.85 -3.60 23.85 -2.65 24.60 0.40 0.30 7.05 0.45 18.30 0.40 14.40 -0.10 18.20 -0.30 20.30 -0.95z m-3.45 -48.20 c6.65 -0.75 11.55 -3.50 13.70 -7.70 0.85 -1.60 1.10 -2.95 1.10 -6.40 l0.05 -4.35 -1.90 -1.95 c-3.55 -3.65 -9.85 -4.65 -28.75 -4.55 -8.10 0.05 -11.35 0.25 -11.80 0.70 -0.65 0.70 -3.10 22.75 -2.60 24 0.25 0.65 2.20 0.75 13.15 0.75 7.10 0 14.80 -0.20 17.05 -0.50z"/>
  <path d="M655.35 150.20 c-3.60 -0.85 -5.40 -1.80 -7.85 -4.05 -3.95 -3.55 -5.45 -7.70 -5.50 -15.20 -0.05 -10.35 5.25 -21.70 13.35 -28.75 7.20 -6.20 12.30 -9.10 26.40 -14.90 17.25 -7.10 17.85 -7.35 21.95 -9.75 7.35 -4.30 10.30 -8.30 10.30 -14 0 -7.45 -4.15 -11.45 -12.70 -12.35 -7.05 -0.70 -13.35 1.50 -22.85 8.10 -7.65 5.30 -10.05 6.30 -14.95 6.30 -4.70 -0.05 -6.65 -0.80 -9.10 -3.50 -2.15 -2.40 -2.65 -4.40 -2.25 -8.95 0.90 -9.35 12.60 -19.05 28.95 -23.90 9.15 -2.75 24.20 -3.30 34.15 -1.30 10.35 2.15 17.20 5.55 22.30 11.20 3.60 3.95 5.25 7.30 6.50 12.90 0.85 3.90 0.90 5.20 0.50 10.60 -0.80 9.65 -2.50 14.60 -7.15 20.95 -3.05 4.15 -6.45 7.25 -11.65 10.65 -6.75 4.40 -13.90 7.55 -30.70 13.55 -13.80 4.95 -20 9.70 -20.05 15.30 l0 1.40 32.15 0.10 32.10 0.15 -0.10 1.50 c-0.20 3.25 -2.20 22.55 -2.40 23.65 l-0.25 1.10 -39.15 -0.05 c-31.65 -0.05 -39.65 -0.15 -42 -0.75z"/>
  <path d="M756.20 148.40 c0.20 -1.45 0.90 -8.05 1.60 -14.65 1.50 -14.40 2.05 -19.75 2.70 -25.85 2.05 -19.85 2.65 -25.30 3.55 -33.90 0.55 -5.35 1.85 -17.75 2.85 -27.50 l1.90 -17.75 30.45 0 c33.35 0 37.10 0.20 47.20 2.80 9.80 2.55 17.60 8.05 20.40 14.45 1.95 4.40 2.55 8.25 2.15 13.60 -0.55 7.10 -1.15 9.65 -3.30 14.15 -2.30 4.85 -6.85 9.60 -12.05 12.65 -2 1.20 -3.65 2.20 -3.65 2.30 0 0.10 1.30 0.70 2.90 1.35 11 4.35 16.10 12.20 15.45 23.70 -0.60 11.15 -4.45 19.40 -11.95 25.60 -3.65 3 -12.65 7.35 -18.45 8.90 -9 2.35 -15.80 2.75 -50.35 2.75 l-31.65 0 0.25 -2.60z m71.95 -23.05 c5.90 -2.25 9.35 -6.90 9.40 -12.80 0.10 -5.05 -2.15 -8.25 -6.80 -9.70 -1.35 -0.45 -5.10 -1.05 -8.25 -1.35 -7 -0.60 -30.50 -0.65 -31.45 -0.05 -0.95 0.60 -3.50 24.45 -2.70 24.95 0.30 0.20 8.75 0.30 18.75 0.20 17.35 -0.10 18.30 -0.15 21.05 -1.25z m-4.25 -47.80 c4.30 -0.50 9.05 -2.65 11.40 -5.15 2.10 -2.20 3.20 -5.30 3.30 -9.20 0.10 -2.80 -0.05 -3.40 -1.40 -5.30 -3.05 -4.40 -9.10 -5.45 -29.65 -5.15 -6.40 0.10 -11.75 0.30 -11.85 0.40 -0.35 0.35 -2.75 23.55 -2.45 24.20 0.15 0.50 3.25 0.65 13.60 0.65 7.35 -0.05 15.05 -0.25 17.05 -0.45z"/>
 </g>
</svg>